<?xml version="1.0" encoding="utf-8"?>
<!-- Generator: Adobe Illustrator 16.0.0, SVG Export Plug-In . SVG Version: 6.00 Build 0)  -->
<!DOCTYPE svg PUBLIC "-//W3C//DTD SVG 1.1//EN" "http://www.w3.org/Graphics/SVG/1.1/DTD/svg11.dtd">
<svg version="1.1" id="Layer_1" xmlns="http://www.w3.org/2000/svg" xmlns:xlink="http://www.w3.org/1999/xlink" x="0px" y="0px"
	 width="100px" height="100px" viewBox="0 0 100 100" enable-background="new 0 0 100 100" xml:space="preserve">
<g>
	<path d="M61.741,66.752c-3.563,2.494-7.725,3.75-11.984,3.689c-0.562-0.008-1.121-0.033-1.675-0.084
		c-0.225-0.021-0.452-0.059-0.679-0.088c-0.434-0.055-0.867-0.113-1.295-0.199c-0.261-0.049-0.515-0.113-0.771-0.176
		c-0.416-0.096-0.829-0.193-1.234-0.316c-0.196-0.059-0.386-0.129-0.578-0.193c-0.47-0.154-0.934-0.32-1.387-0.51
		c-0.104-0.041-0.202-0.088-0.305-0.135c-0.531-0.23-1.053-0.479-1.559-0.754c-0.023-0.012-0.045-0.025-0.067-0.037
		c-1.715-0.938-3.282-2.112-4.656-3.484c-0.022-0.023-0.044-0.049-0.067-0.072c-0.424-0.428-0.832-0.879-1.22-1.346
		c-0.083-0.097-0.159-0.205-0.241-0.307c-2.8-3.5-4.487-7.931-4.487-12.753h5.386l-8.618-12.923l-8.616,12.924h5.386
		c0,5.667,1.767,10.918,4.768,15.261c0.038,0.063,0.063,0.125,0.105,0.185c0.312,0.446,0.656,0.854,0.988,1.274
		c0.126,0.16,0.239,0.326,0.37,0.48c0.492,0.594,1.014,1.158,1.549,1.703c0.05,0.051,0.1,0.105,0.152,0.156
		c1.8,1.807,3.832,3.324,6.048,4.535c0.061,0.035,0.117,0.072,0.179,0.102c0.64,0.346,1.292,0.658,1.961,0.947
		c0.165,0.072,0.326,0.15,0.492,0.223c0.572,0.236,1.154,0.443,1.742,0.635c0.277,0.098,0.556,0.195,0.837,0.277
		c0.513,0.156,1.039,0.281,1.569,0.408c0.352,0.08,0.7,0.17,1.058,0.24c0.147,0.029,0.289,0.072,0.437,0.098
		c0.5,0.088,1.001,0.139,1.499,0.197c0.182,0.021,0.357,0.055,0.541,0.072c0.896,0.088,1.793,0.146,2.687,0.146
		c5.477,0,10.815-1.674,15.396-4.885c1.461-1.023,1.818-3.037,0.791-4.498C65.218,66.082,63.198,65.729,61.741,66.752z"/>
	<path d="M76.931,49.989c-0.004-5.646-1.758-10.889-4.745-15.222c-0.042-0.072-0.071-0.147-0.122-0.218
		c-0.371-0.528-0.774-1.022-1.179-1.52c-0.046-0.059-0.089-0.122-0.139-0.181c-2.731-3.315-6.165-5.877-10.052-7.553
		c-0.109-0.046-0.215-0.096-0.32-0.143c-0.622-0.256-1.257-0.483-1.896-0.695c-0.232-0.078-0.459-0.16-0.69-0.231
		c-0.56-0.168-1.124-0.303-1.696-0.437c-0.316-0.071-0.627-0.152-0.947-0.215c-0.154-0.029-0.307-0.076-0.461-0.105
		c-0.426-0.074-0.851-0.106-1.28-0.16c-0.294-0.038-0.585-0.084-0.88-0.114c-0.715-0.067-1.427-0.096-2.138-0.107
		c-0.13-0.001-0.255-0.018-0.382-0.018c-0.025,0-0.047,0.006-0.07,0.009c-5.468,0.003-10.799,1.653-15.374,4.86
		c-1.462,1.022-1.817,3.039-0.792,4.5c1.021,1.461,3.037,1.817,4.499,0.792c3.534-2.474,7.66-3.729,11.889-3.689
		c0.606,0.003,1.204,0.033,1.796,0.09c0.182,0.019,0.361,0.046,0.543,0.07c0.488,0.058,0.973,0.125,1.443,0.218
		c0.209,0.042,0.416,0.097,0.622,0.143c0.468,0.106,0.935,0.219,1.39,0.358c0.142,0.042,0.285,0.096,0.428,0.143
		c0.521,0.17,1.035,0.354,1.536,0.564c0.05,0.021,0.101,0.047,0.151,0.067c3.012,1.296,5.655,3.29,7.716,5.786
		c0.014,0.015,0.025,0.033,0.038,0.047c2.898,3.533,4.646,8.047,4.649,12.961h-5.39l8.621,12.925l8.615-12.925H76.931z"/>
</g>
</svg>
